<svg width="173" height="24" viewBox="0 0 173 24" fill="none" xmlns="http://www.w3.org/2000/svg">
<path d="M6.496 19.552L2.6226e-06 12.48L6.496 5.40801H13.376L6.848 12.48L13.376 19.552H6.496ZM159.38 5.40801H166.26L172.756 12.48L166.26 19.552H159.38L165.908 12.48L159.38 5.40801Z" fill="#3C4DAA"/>
<path d="M38.5503 19.712H30.1663L28.8223 23.68H23.0943L31.2223 1.21601H37.5583L45.6863 23.68H39.8943L38.5503 19.712ZM37.1423 15.488L34.3583 7.26401L31.6063 15.488H37.1423ZM59.04 5.63201C61.1307 5.63201 62.7947 6.31467 64.032 7.68001C65.2907 9.02401 65.92 10.88 65.92 13.248V23.68H60.48V13.984C60.48 12.7893 60.1707 11.8613 59.552 11.2C58.9333 10.5387 58.1013 10.208 57.056 10.208C56.0107 10.208 55.1787 10.5387 54.56 11.2C53.9413 11.8613 53.632 12.7893 53.632 13.984V23.68H48.16V5.82401H53.632V8.19201C54.1867 7.40267 54.9333 6.78401 55.872 6.33601C56.8107 5.86667 57.8667 5.63201 59.04 5.63201ZM68.6345 14.72C68.6345 12.8853 68.9758 11.2747 69.6585 9.88801C70.3625 8.50134 71.3118 7.43467 72.5065 6.68801C73.7012 5.94134 75.0345 5.56801 76.5065 5.56801C77.6798 5.56801 78.7465 5.81334 79.7065 6.30401C80.6878 6.79467 81.4558 7.45601 82.0105 8.28801V7.62939e-06H87.4825V23.68H82.0105V21.12C81.4985 21.9733 80.7625 22.656 79.8025 23.168C78.8638 23.68 77.7652 23.936 76.5065 23.936C75.0345 23.936 73.7012 23.5627 72.5065 22.816C71.3118 22.048 70.3625 20.9707 69.6585 19.584C68.9758 18.176 68.6345 16.5547 68.6345 14.72ZM82.0105 14.752C82.0105 13.3867 81.6265 12.3093 80.8585 11.52C80.1118 10.7307 79.1945 10.336 78.1065 10.336C77.0185 10.336 76.0905 10.7307 75.3225 11.52C74.5758 12.288 74.2025 13.3547 74.2025 14.72C74.2025 16.0853 74.5758 17.1733 75.3225 17.984C76.0905 18.7733 77.0185 19.168 78.1065 19.168C79.1945 19.168 80.1118 18.7733 80.8585 17.984C81.6265 17.1947 82.0105 16.1173 82.0105 14.752ZM96.9133 8.80001C97.5533 7.81867 98.3533 7.05067 99.3133 6.49601C100.273 5.92001 101.34 5.63201 102.513 5.63201V11.424H101.009C99.6439 11.424 98.6199 11.7227 97.9373 12.32C97.2546 12.896 96.9133 13.92 96.9133 15.392V23.68H91.4413V5.82401H96.9133V8.80001ZM121.961 14.464C121.961 14.976 121.929 15.5093 121.865 16.064H109.481C109.566 17.1733 109.918 18.0267 110.537 18.624C111.177 19.2 111.955 19.488 112.873 19.488C114.238 19.488 115.187 18.912 115.721 17.76H121.545C121.246 18.9333 120.702 19.9893 119.913 20.928C119.145 21.8667 118.174 22.6027 117.001 23.136C115.827 23.6693 114.515 23.936 113.065 23.936C111.315 23.936 109.758 23.5627 108.393 22.816C107.027 22.0693 105.961 21.0027 105.193 19.616C104.425 18.2293 104.041 16.608 104.041 14.752C104.041 12.896 104.414 11.2747 105.161 9.88801C105.929 8.50134 106.995 7.43467 108.361 6.68801C109.726 5.94134 111.294 5.56801 113.065 5.56801C114.793 5.56801 116.329 5.93067 117.673 6.65601C119.017 7.38134 120.062 8.41601 120.809 9.76001C121.577 11.104 121.961 12.672 121.961 14.464ZM116.361 13.024C116.361 12.0853 116.041 11.3387 115.401 10.784C114.761 10.2293 113.961 9.95201 113.001 9.95201C112.083 9.95201 111.305 10.2187 110.665 10.752C110.046 11.2853 109.662 12.0427 109.513 13.024H116.361ZM150.48 5.82401L145.648 23.68H139.6L136.784 12.096L133.872 23.68H127.856L122.992 5.82401H128.464L130.992 18.592L134 5.82401H139.792L142.832 18.528L145.328 5.82401H150.48Z" fill="#FFF9F9"/>
</svg>
