<svg width="174" height="25" viewBox="0 0 174 25" fill="none" xmlns="http://www.w3.org/2000/svg">
<path d="M7.32 19.872L0.824 12.8L7.32 5.728H14.2L7.672 12.8L14.2 19.872H7.32ZM160.204 5.728H167.084L173.58 12.8L167.084 19.872H160.204L166.732 12.8L160.204 5.728Z" fill="#3CAA5C"/>
<path d="M39.3743 20.032H30.9903L29.6463 24H23.9183L32.0463 1.536H38.3823L46.5103 24H40.7183L39.3743 20.032ZM37.9663 15.808L35.1823 7.584L32.4303 15.808H37.9663ZM59.864 5.952C61.9547 5.952 63.6187 6.63467 64.856 8C66.1147 9.344 66.744 11.2 66.744 13.568V24H61.304V14.304C61.304 13.1093 60.9947 12.1813 60.376 11.52C59.7573 10.8587 58.9253 10.528 57.88 10.528C56.8347 10.528 56.0027 10.8587 55.384 11.52C54.7653 12.1813 54.456 13.1093 54.456 14.304V24H48.984V6.144H54.456V8.512C55.0107 7.72267 55.7573 7.104 56.696 6.656C57.6347 6.18667 58.6907 5.952 59.864 5.952ZM69.4585 15.04C69.4585 13.2053 69.7998 11.5947 70.4825 10.208C71.1865 8.82133 72.1358 7.75467 73.3305 7.008C74.5252 6.26133 75.8585 5.888 77.3305 5.888C78.5038 5.888 79.5705 6.13333 80.5305 6.624C81.5118 7.11467 82.2798 7.776 82.8345 8.608V0.32H88.3065V24H82.8345V21.44C82.3225 22.2933 81.5865 22.976 80.6265 23.488C79.6878 24 78.5892 24.256 77.3305 24.256C75.8585 24.256 74.5252 23.8827 73.3305 23.136C72.1358 22.368 71.1865 21.2907 70.4825 19.904C69.7998 18.496 69.4585 16.8747 69.4585 15.04ZM82.8345 15.072C82.8345 13.7067 82.4505 12.6293 81.6825 11.84C80.9358 11.0507 80.0185 10.656 78.9305 10.656C77.8425 10.656 76.9145 11.0507 76.1465 11.84C75.3998 12.608 75.0265 13.6747 75.0265 15.04C75.0265 16.4053 75.3998 17.4933 76.1465 18.304C76.9145 19.0933 77.8425 19.488 78.9305 19.488C80.0185 19.488 80.9358 19.0933 81.6825 18.304C82.4505 17.5147 82.8345 16.4373 82.8345 15.072ZM97.7373 9.12C98.3773 8.13867 99.1773 7.37067 100.137 6.816C101.097 6.24 102.164 5.952 103.337 5.952V11.744H101.833C100.468 11.744 99.4439 12.0427 98.7613 12.64C98.0786 13.216 97.7373 14.24 97.7373 15.712V24H92.2653V6.144H97.7373V9.12ZM122.785 14.784C122.785 15.296 122.753 15.8293 122.689 16.384H110.305C110.39 17.4933 110.742 18.3467 111.361 18.944C112.001 19.52 112.779 19.808 113.697 19.808C115.062 19.808 116.011 19.232 116.545 18.08H122.369C122.07 19.2533 121.526 20.3093 120.737 21.248C119.969 22.1867 118.998 22.9227 117.825 23.456C116.651 23.9893 115.339 24.256 113.889 24.256C112.139 24.256 110.582 23.8827 109.217 23.136C107.851 22.3893 106.785 21.3227 106.017 19.936C105.249 18.5493 104.865 16.928 104.865 15.072C104.865 13.216 105.238 11.5947 105.985 10.208C106.753 8.82133 107.819 7.75467 109.185 7.008C110.55 6.26133 112.118 5.888 113.889 5.888C115.617 5.888 117.153 6.25067 118.497 6.976C119.841 7.70133 120.886 8.736 121.633 10.08C122.401 11.424 122.785 12.992 122.785 14.784ZM117.185 13.344C117.185 12.4053 116.865 11.6587 116.225 11.104C115.585 10.5493 114.785 10.272 113.825 10.272C112.907 10.272 112.129 10.5387 111.489 11.072C110.87 11.6053 110.486 12.3627 110.337 13.344H117.185ZM151.304 6.144L146.472 24H140.424L137.608 12.416L134.696 24H128.68L123.816 6.144H129.288L131.816 18.912L134.824 6.144H140.616L143.656 18.848L146.152 6.144H151.304Z" fill="#FFF9F9"/>
</svg>
