<svg width="150" height="150" viewBox="0 0 150 150" fill="none" xmlns="http://www.w3.org/2000/svg">
<g id="node-svgrepo-com 1">
<path id="Vector" d="M75 140.625C73.2294 140.626 71.4898 140.16 69.9562 139.275L53.9063 129.773C51.5109 128.433 52.6781 127.959 53.4703 127.683C56.0179 126.896 58.4571 125.793 60.7313 124.402C60.9216 124.314 61.1313 124.275 61.3405 124.291C61.5496 124.307 61.7514 124.375 61.9266 124.491L74.2594 131.817C74.489 131.939 74.7449 132.002 75.0047 132.002C75.2645 132.002 75.5204 131.939 75.75 131.817L123.844 104.058C124.069 103.923 124.255 103.732 124.384 103.504C124.513 103.275 124.58 103.017 124.58 102.755V47.2266C124.58 46.9601 124.511 46.698 124.381 46.4657C124.25 46.2333 124.062 46.0385 123.834 45.9L75.7406 18.1641C75.5138 18.0363 75.2579 17.9692 74.9977 17.9692C74.7374 17.9692 74.4815 18.0363 74.2547 18.1641L26.1891 45.9094C25.9598 46.045 25.7694 46.2375 25.6364 46.4682C25.5033 46.699 25.4321 46.9602 25.4297 47.2266V102.731C25.4303 102.993 25.5006 103.25 25.6332 103.476C25.7658 103.701 25.956 103.888 26.1844 104.016L39.375 111.628C46.5234 115.2 50.9016 110.991 50.9016 106.763V51.9609C50.9016 51.588 51.0497 51.2303 51.3134 50.9666C51.5772 50.7029 51.9349 50.5547 52.3078 50.5547H58.4016C58.7745 50.5547 59.1322 50.7029 59.3959 50.9666C59.6597 51.2303 59.8078 51.588 59.8078 51.9609V106.767C59.8078 116.306 54.6141 121.767 45.5672 121.767C41.6643 121.835 37.8226 120.791 34.4906 118.758L21.8484 111.506C20.3137 110.613 19.0402 109.332 18.1552 107.792C17.2702 106.252 16.8045 104.507 16.8047 102.731V47.2266C16.8001 45.4478 17.2638 43.6992 18.1492 42.1564C19.0345 40.6136 20.3104 39.331 21.8484 38.4375L69.9469 10.6688C71.4962 9.82111 73.2339 9.37683 75 9.37683C76.7661 9.37683 78.5038 9.82111 80.0531 10.6688L128.147 38.4375C129.681 39.3295 130.955 40.6084 131.841 42.1465C132.727 43.6846 133.194 45.4282 133.195 47.2031V102.731C133.193 104.507 132.725 106.252 131.84 107.791C130.954 109.33 129.681 110.611 128.147 111.506L80.0531 139.275C78.5167 140.161 76.7738 140.627 75 140.625Z" fill="#F7DF1E"/>
<path id="Vector_2" d="M65.8781 84.1547C65.8781 83.7817 66.0263 83.424 66.29 83.1603C66.5537 82.8966 66.9114 82.7484 67.2844 82.7484H73.5047C73.837 82.7495 74.1583 82.8683 74.4114 83.0837C74.6645 83.299 74.8332 83.5971 74.8875 83.925C75.825 90.2578 78.6375 93.45 91.3547 93.45C101.484 93.45 105.802 91.1578 105.802 85.7812C105.802 82.6828 104.578 80.3813 88.8328 78.8391C75.6703 77.5359 67.5328 74.6203 67.5328 64.1016C67.5328 54.3984 75.7125 48.6094 89.4234 48.6094C104.831 48.6094 112.458 53.9578 113.423 65.4328C113.438 65.6244 113.414 65.817 113.351 65.9986C113.288 66.1803 113.189 66.3472 113.06 66.4891C112.93 66.631 112.773 66.7448 112.598 66.8235C112.422 66.9023 112.233 66.9442 112.041 66.9469H105.778C105.464 66.9425 105.16 66.833 104.916 66.6359C104.671 66.4388 104.499 66.1654 104.428 65.8594C102.933 59.1984 99.2719 57.0703 89.4281 57.0703C78.3656 57.0703 77.0812 60.9234 77.0812 63.8109C77.0812 67.3078 78.6 68.3297 93.5344 70.3031C108.314 72.2578 115.336 75.0234 115.336 85.4109C115.336 95.8922 106.598 101.892 91.3594 101.892C70.2891 101.92 65.8781 92.2594 65.8781 84.1547Z" fill="#F7DF1E"/>
</g>
</svg>
